<?xml version="1.0" encoding="utf-8"?>
<svg viewBox="443.718 115.653 15.851 15.75" xmlns="http://www.w3.org/2000/svg">
  <path fill-rule="evenodd" clip-rule="evenodd" d="M 446.883 119.067 C 446.883 119.275 446.643 119.392 446.479 119.264 L 444.886 118.025 C 444.758 117.925 444.758 117.731 444.886 117.63 L 446.479 116.392 C 446.643 116.264 446.883 116.381 446.883 116.589 L 446.883 117.328 L 452.883 117.328 L 452.883 116.589 C 452.883 116.381 453.122 116.264 453.286 116.392 L 454.879 117.63 C 455.008 117.731 455.008 117.925 454.879 118.025 L 453.286 119.264 C 453.122 119.392 452.883 119.275 452.883 119.067 L 452.883 118.328 L 446.883 118.328 L 446.883 119.067 Z M 453.383 121.328 L 446.383 121.328 C 446.106 121.328 445.883 121.551 445.883 121.828 L 445.883 128.828 C 445.883 129.104 446.106 129.328 446.383 129.328 L 453.383 129.328 C 453.659 129.328 453.883 129.104 453.883 128.828 L 453.883 121.828 C 453.883 121.551 453.659 121.328 453.383 121.328 Z M 446.383 120.328 C 445.554 120.328 444.883 120.999 444.883 121.828 L 444.883 128.828 C 444.883 129.656 445.554 130.328 446.383 130.328 L 453.383 130.328 C 454.211 130.328 454.883 129.656 454.883 128.828 L 454.883 121.828 C 454.883 120.999 454.211 120.328 453.383 120.328 L 446.383 120.328 Z M 458.621 122.328 L 457.883 122.328 L 457.883 128.328 L 458.621 128.328 C 458.829 128.328 458.947 128.567 458.819 128.731 L 457.58 130.324 C 457.48 130.453 457.285 130.453 457.185 130.324 L 455.946 128.731 C 455.819 128.567 455.936 128.328 456.144 128.328 L 456.883 128.328 L 456.883 122.328 L 456.144 122.328 C 455.936 122.328 455.819 122.088 455.946 121.924 L 457.185 120.331 C 457.285 120.203 457.48 120.203 457.58 120.331 L 458.819 121.924 C 458.946 122.088 458.829 122.328 458.621 122.328 Z" style="fill: rgb(190, 201, 222);"/>
</svg>