<?xml version="1.0" encoding="utf-8"?>
<svg viewBox="105.148 223.829 32.502 13.054" xmlns="http://www.w3.org/2000/svg">
  <title>JSON</title>
  <polygon points="136.42 225.386 136.42 235.386 134.42 235.386 132.42 229.386 132.42 235.386 130.42 235.386 130.42 225.386 132.42 225.386 134.42 231.386 134.42 225.386 136.42 225.386" style="fill: rgb(131, 139, 154);"/>
  <path d="M 126.753 235.386 L 124.086 235.386 C 123.166 235.385 122.421 234.64 122.42 233.72 L 122.42 227.053 C 122.421 226.133 123.166 225.387 124.086 225.386 L 126.753 225.386 C 127.673 225.387 128.419 226.133 128.42 227.053 L 128.42 233.72 C 128.419 234.64 127.673 235.385 126.753 235.386 Z M 124.42 233.386 L 126.42 233.386 L 126.42 227.386 L 124.42 227.386 L 124.42 229.261 L 124.42 233.386 Z" style="fill: rgb(131, 139, 154);"/>
  <path d="M 118.753 235.386 L 114.42 235.386 L 114.42 233.386 L 118.42 233.386 L 118.42 231.386 L 116.42 231.386 C 115.316 231.385 114.421 230.49 114.42 229.386 L 114.42 227.053 C 114.421 226.133 115.166 225.387 116.086 225.386 L 120.42 225.386 L 120.42 227.386 L 116.42 227.386 L 116.42 229.386 L 118.42 229.386 C 119.524 229.387 120.419 230.282 120.42 231.386 L 120.42 233.72 C 120.419 234.64 119.673 235.385 118.753 235.386 Z" style="fill: rgb(131, 139, 154);"/>
  <path d="M 110.753 235.386 L 108.086 235.386 C 107.166 235.385 106.421 234.64 106.42 233.72 L 106.42 231.386 L 108.42 231.386 L 108.42 233.386 L 110.42 233.386 L 110.42 225.386 L 112.42 225.386 L 112.42 233.72 C 112.419 234.64 111.673 235.385 110.753 235.386 Z" style="fill: rgb(131, 139, 154);"/>
  <rect id="_Transparent_Rectangle_" data-name="&lt;Transparent Rectangle&gt;" class="cls-1" width="32" height="32" style="fill: none;" x="105.42" y="214.386"/>
  <g id="layer1" transform="matrix(1, 0, 0, 1, 311.832055, 67.487041)"/>
</svg>